<svg enable-background="new 0 0 1534 578" viewBox="0 0 1534 578" xmlns="http://www.w3.org/2000/svg"><g fill="#f4f4f4"><path d="m420.4 180.4c-19.8 9-48.1 13.4-85.1 13.4 20.1 8.6 34.9 18.7 44.2 30.5s14 27.7 14 47.9c0 18.7-5.4 35.5-16.2 50.6s-26.2 26.9-46.2 35.3-43.4 12.6-70.2 12.6c-14.5 0-25.2-.6-31.9-1.7-4.5 2.2-6.7 5.8-6.7 10.6 0 4.1 1.9 7.5 5.6 10.1s23.5 3.3 23.5 3.3h41.8c23.6 0 44.1 3.6 61.7 10.7 17.5 7.2 31 17.2 40.5 30.3 9.5 13 14.2 27.8 14.2 44.2 0 30.7-13.7 54.9-41 72.6s-66.6 26.5-117.7 26.5c-37.5 0-66.9-3.9-88.2-11.8s-36.1-18.8-44.5-32.7-12.6-30.9-12.6-50.9h93.3s1.5 16.3 4.4 20.1 8.3 6.6 16 8.3 19.3 2.6 34.8 2.6c19.9 0 33.2-2.2 40-6.5s10.2-10.1 10.2-17.4c0-5.9-2.5-10.8-7.5-14.6s-24-5.5-24-5.5h-41.5s-59.7-5.9-76.1-16.9-24.6-25.5-24.6-43.4c0-11.6 3.5-22.8 10.6-33.6s16.2-19.6 27.4-26.3c-20.1-10.8-34.5-23.1-43.1-36.9s-12.9-30.6-12.9-50.4c0-35.4 12.7-63.1 38.1-82.8 25.3-19.7 59.4-29.6 102.3-29.6 28.4 1.1 53.8-2.5 76.4-10.9s44.9-20.1 66.9-35zm-187.7 57c-6.2 6.5-9.3 15.8-9.3 27.8 0 13.1 3.1 23 9.3 29.7s14.2 10.1 24 10.1c22.1 0 33.2-13.8 33.2-41.4 0-12.7-2.7-21.9-8.2-27.5-5.4-5.6-13.8-8.4-25-8.4-9.8-.1-17.8 3.2-24 9.7z"/><path d="m704 449h-94.1l-3.8-31.8c-20 28.5-48.6 42.8-86 42.8-27.2 0-47.5-8.2-60.9-24.7-13.5-16.5-20.2-39.3-20.2-68.6v-210.7h109v194.9c0 10.5 1.5 17.9 4.5 22 3 4.2 7.3 6.3 12.9 6.3 4.9 0 10.1-2 15.6-6s10.5-10 15-18v-199.2h108z"/><path d="m1152.4 156-57.6 293h-124.6l-31.8-196.4-30.2 196.4h-124l-58.7-293h109.7l17.6 210.1 38.4-210.1h101.5l30.7 210.1 24.7-210.1z"/><path d="m1283 156v293h-109v-293z"/><path d="m1419 156v293h-109v-293z"/><circle cx="1228.5" cy="54.5" r="54.5"/><circle cx="1364.5" cy="54.5" r="54.5"/><path d="m1151 81c-2.8-8-4.3-17.2-4.3-26.7s1.5-18.7 4.3-27.3h-1096.6-54.4v54.2 442.7 54.1h54.4 72.2c-13.2-8.1-23.5-18.4-30.7-30.3-4.4-7.4-7.9-15.3-10.6-23.7h-31.3v-443z"/><path d="m1479.9 27h-38.8c2.8 8.7 4.3 17.8 4.3 27.3s-1.5 18.7-4.3 26.7h38.9v443h-1055.7c-8.7 19.8-23.5 37-44.3 50.4-2.2 1.4-4.5 2.6-6.8 3.6h1106.6 54.1v-53.8-442.6-54.6z"/></g><g fill="#151515"><path d="m1974.4 180.4c-19.8 9-48.1 13.4-85.1 13.4 20.1 8.6 34.9 18.7 44.2 30.5s14 27.7 14 47.9c0 18.7-5.4 35.5-16.2 50.6s-26.2 26.9-46.2 35.3-43.4 12.6-70.2 12.6c-14.5 0-25.2-.6-31.9-1.7-4.5 2.2-6.7 5.8-6.7 10.6 0 4.1 1.9 7.5 5.6 10.1s23.5 3.3 23.5 3.3h41.8c23.6 0 44.1 3.6 61.7 10.7 17.5 7.2 31 17.2 40.5 30.3 9.5 13 14.2 27.8 14.2 44.2 0 30.7-13.7 54.9-41 72.6s-66.6 26.5-117.7 26.5c-37.5 0-66.9-3.9-88.2-11.8s-36.1-18.8-44.5-32.7-12.6-30.9-12.6-50.9h93.3s1.5 16.3 4.4 20.1 8.3 6.6 16 8.3 19.3 2.6 34.8 2.6c19.9 0 33.2-2.2 40-6.5s10.2-10.1 10.2-17.4c0-5.9-2.5-10.8-7.5-14.6s-24-5.5-24-5.5h-41.5s-59.7-5.9-76.1-16.9-24.6-25.5-24.6-43.4c0-11.6 3.5-22.8 10.6-33.6s16.2-19.6 27.4-26.3c-20.1-10.8-34.5-23.1-43.1-36.9s-12.9-30.6-12.9-50.4c0-35.4 12.7-63.1 38.1-82.8 25.4-19.8 59.5-29.7 102.4-29.7 28.4 1.1 53.8-2.5 76.4-10.9s44.9-20.1 66.9-35zm-187.7 57c-6.2 6.5-9.3 15.8-9.3 27.8 0 13.1 3.1 23 9.3 29.7s14.2 10.1 24 10.1c22.1 0 33.2-13.8 33.2-41.4 0-12.7-2.7-21.9-8.2-27.5-5.4-5.6-13.8-8.4-25-8.4-9.8-.1-17.8 3.2-24 9.7z"/><path d="m2258 449h-94.1l-3.8-31.8c-20 28.5-48.6 42.8-86 42.8-27.2 0-47.5-8.2-60.9-24.7s-20.1-39.3-20.1-68.6v-210.7h109v194.9c0 10.5 1.5 17.9 4.5 22 3 4.2 7.3 6.3 12.9 6.3 4.9 0 10.1-2 15.6-6s10.5-10 15-18v-199.2h108v293z"/><path d="m2706.4 156-57.6 293h-124.6l-31.8-196.4-30.2 196.4h-124l-58.7-293h109.7l17.6 210.1 38.4-210.1h101.5l30.7 210.1 24.7-210.1z"/><path d="m2837 156v293h-109v-293z"/><path d="m2973 156v293h-109v-293z"/><circle cx="2782.5" cy="54.5" r="54.5"/><circle cx="2918.5" cy="54.5" r="54.5"/><path d="m2705 81c-2.8-8-4.3-17.2-4.3-26.7s1.5-18.7 4.3-27.3h-1096.6-54.4v54.2 442.7 54.1h54.4 72.2c-13.2-8.1-23.5-18.4-30.7-30.3-4.4-7.4-7.9-15.3-10.6-23.7h-31.3v-443z"/><path d="m3033.9 27h-38.8c2.8 8.7 4.3 17.8 4.3 27.3s-1.5 18.7-4.3 26.7h38.9v443h-1055.7c-8.7 19.8-23.5 37-44.3 50.4-2.2 1.4-4.5 2.6-6.8 3.6h1106.6 54.1v-53.8-442.6-54.6z"/></g></svg>